<svg width="189" height="53" viewBox="0 0 189 53" fill="none" xmlns="http://www.w3.org/2000/svg">
<path d="M19.845 14.43V19.225H13.335V39H7.35V19.225H0.84V14.43H19.845ZM38.1437 34.66H28.9737L27.5037 39H21.2387L30.1287 14.43H37.0587L45.9487 39H39.6137L38.1437 34.66ZM36.6037 30.04L33.5587 21.045L30.5487 30.04H36.6037ZM67.3794 22.34C67.3794 23.7633 67.0527 25.07 66.3994 26.26C65.746 27.4267 64.7427 28.3717 63.3894 29.095C62.036 29.8183 60.356 30.18 58.3494 30.18H54.6394V39H48.6544V14.43H58.3494C60.3094 14.43 61.966 14.7683 63.3194 15.445C64.6727 16.1217 65.6877 17.055 66.3644 18.245C67.041 19.435 67.3794 20.8 67.3794 22.34ZM57.8944 25.42C59.0377 25.42 59.8894 25.1517 60.4494 24.615C61.0094 24.0783 61.2894 23.32 61.2894 22.34C61.2894 21.36 61.0094 20.6017 60.4494 20.065C59.8894 19.5283 59.0377 19.26 57.8944 19.26H54.6394V25.42H57.8944ZM85.5452 24.23V29.2H70.1452V24.23H85.5452ZM112.778 39H106.793L96.7829 23.845V39H90.7979V14.43H96.7829L106.793 29.655V14.43H112.778V39ZM132.166 24.23V29.2H116.766V24.23H132.166ZM153.729 22.2C153.286 21.3833 152.644 20.765 151.804 20.345C150.987 19.9017 150.019 19.68 148.899 19.68C146.962 19.68 145.411 20.3217 144.244 21.605C143.077 22.865 142.494 24.5567 142.494 26.68C142.494 28.9433 143.101 30.7167 144.314 32C145.551 33.26 147.242 33.89 149.389 33.89C150.859 33.89 152.096 33.5167 153.099 32.77C154.126 32.0233 154.872 30.95 155.339 29.55H147.744V25.14H160.764V30.705C160.321 32.1983 159.562 33.5867 158.489 34.87C157.439 36.1533 156.097 37.1917 154.464 37.985C152.831 38.7783 150.987 39.175 148.934 39.175C146.507 39.175 144.337 38.65 142.424 37.6C140.534 36.5267 139.052 35.045 137.979 33.155C136.929 31.265 136.404 29.1067 136.404 26.68C136.404 24.2533 136.929 22.095 137.979 20.205C139.052 18.2917 140.534 16.81 142.424 15.76C144.314 14.6867 146.472 14.15 148.899 14.15C151.839 14.15 154.312 14.8617 156.319 16.285C158.349 17.7083 159.691 19.68 160.344 22.2H153.729Z" fill="#FFFDFD"/>
<circle cx="176.5" cy="26.5" r="5.5" transform="rotate(-90 176.5 26.5)" stroke="#F5F5F5" stroke-width="1.5"/>
<circle cx="176.5" cy="26.5" r="11.75" transform="rotate(-90 176.5 26.5)" stroke="#F5F5F5" stroke-width="1.5"/>
</svg>
